<svg width="46" height="46" viewBox="0 0 46 46" fill="none" xmlns="http://www.w3.org/2000/svg">
<g id="vuesax/outline/cloud-add">
<g id="vuesax/outline/cloud-add_2">
<g id="cloud-add">
<path id="Vector" d="M14.2988 37.0683H10.6188C4.98376 36.6658 2.45386 32.3342 2.45386 28.4817C2.45386 24.6292 4.98378 20.2784 10.5229 19.895C11.3088 19.8184 11.9988 20.4317 12.0563 21.2367C12.1138 22.0225 11.5197 22.7125 10.7147 22.77C6.99635 23.0384 5.32886 25.8367 5.32886 28.5008C5.32886 31.165 6.99635 33.9634 10.7147 34.2317H14.2988C15.0847 34.2317 15.7363 34.8834 15.7363 35.6692C15.7363 36.455 15.0847 37.0683 14.2988 37.0683Z" fill="#292D32"/>
<path id="Vector_2" d="M31.9506 37.0684C31.9123 37.0684 31.8931 37.0684 31.8548 37.0684C31.069 37.0684 30.3407 36.4167 30.3407 35.6309C30.3407 34.8067 30.954 34.1934 31.759 34.1934C34.1165 34.1934 36.2248 33.3692 37.8731 31.8934C40.8631 29.2867 41.0548 25.53 40.2498 22.885C39.4448 20.2592 37.2023 17.25 33.2923 16.7709C32.6598 16.6942 32.1614 16.2151 32.0464 15.5826C31.2797 10.9826 28.8073 7.80088 25.0506 6.65088C21.179 5.44338 16.6556 6.63171 13.8381 9.58338C11.0972 12.4392 10.4648 16.4451 12.0556 20.8534C12.3239 21.6009 11.9407 22.425 11.1932 22.6934C10.4457 22.9617 9.62147 22.5784 9.35314 21.8309C7.4173 16.4259 8.29899 11.2509 11.7682 7.60921C15.314 3.89088 21.0065 2.41503 25.894 3.91003C30.379 5.29003 33.5414 8.9892 34.6914 14.1259C38.6014 15.0075 41.7448 17.9784 42.9906 22.0801C44.3514 26.5459 43.1248 31.1459 39.7706 34.0592C37.6431 35.9759 34.8639 37.0684 31.9506 37.0684Z" fill="#292D32"/>
<path id="Vector_3" d="M23 42.7034C19.1475 42.7034 15.5442 40.6526 13.57 37.3367C13.3592 37.0109 13.1483 36.6276 12.9758 36.2059C12.3242 34.8451 11.9791 33.2926 11.9791 31.6826C11.9791 25.6067 16.9241 20.6617 23 20.6617C29.0758 20.6617 34.0208 25.6067 34.0208 31.6826C34.0208 33.3117 33.6758 34.8451 32.9858 36.2634C32.8325 36.6276 32.6217 37.0109 32.3917 37.3751C30.4558 40.6526 26.8525 42.7034 23 42.7034ZM23 23.5367C18.515 23.5367 14.8541 27.1976 14.8541 31.6826C14.8541 32.8709 15.1033 33.9826 15.5825 34.9984C15.7358 35.3242 15.8699 35.5926 16.0233 35.8417C17.4799 38.3142 20.1441 39.8284 22.9808 39.8284C25.8174 39.8284 28.4816 38.3142 29.9191 35.8801C30.0916 35.5926 30.245 35.3242 30.36 35.0559C30.8775 34.0017 31.1266 32.8901 31.1266 31.7017C31.1458 27.1976 27.485 23.5367 23 23.5367Z" fill="#292D32"/>
<path id="Vector_4" d="M21.9073 35.0174C21.5431 35.0174 21.179 34.8832 20.8915 34.5957L18.9939 32.6982C18.4381 32.1424 18.4381 31.2224 18.9939 30.6666C19.5497 30.1107 20.4697 30.1107 21.0256 30.6666L21.9456 31.5866L25.0123 28.7499C25.6064 28.2132 26.5073 28.2516 27.0439 28.8266C27.5806 29.4016 27.5423 30.3216 26.9673 30.8582L22.8848 34.6341C22.5973 34.8832 22.2523 35.0174 21.9073 35.0174Z" fill="#292D32"/>
</g>
</g>
</g>
</svg>
