<svg xmlns="http://www.w3.org/2000/svg" version="1.1" viewBox="-5.0 -10.0 110.0 135.0">
 <path d="m84.828 56.559v-0.003906c0-0.074219-0.019531-0.14453-0.054687-0.21094-0.007813-0.019531-0.023438-0.035156-0.035157-0.054688-0.027343-0.042968-0.0625-0.082031-0.10547-0.11328-0.011718-0.007812-0.015624-0.023437-0.027343-0.03125-0.011719-0.007812-0.023438-0.007812-0.035157-0.011719-0.015624-0.011718-0.027343-0.023437-0.046874-0.03125l-9.9922-4.2578 0.32422-1.4375 0.011719-2.9766 9.6484-3.8711c0.1875-0.074219 0.3125-0.26172 0.3125-0.46484v-13.461c0-0.003906-0.003906-0.003906-0.003906-0.007812s0.003906-0.003906 0.003906-0.007812c0-0.019532-0.015625-0.035157-0.019531-0.058594-0.011719-0.0625-0.023438-0.125-0.054688-0.17969-0.027344-0.046875-0.066406-0.082031-0.10547-0.11719-0.015626-0.015625-0.023438-0.03125-0.039063-0.046875-0.007813-0.007813-0.019531-0.003906-0.027344-0.011719-0.023437-0.015625-0.039062-0.042969-0.066406-0.054687l-22.891-9.0195-11.441-4.5117c-0.11719-0.046876-0.24609-0.046876-0.36719 0l-34.328 13.535c-0.015625 0.007812-0.019531 0.019531-0.035156 0.027344-0.019531 0.011718-0.042969 0.011718-0.0625 0.023437-0.035156 0.023437-0.058594 0.0625-0.085937 0.09375-0.019532 0.023437-0.039063 0.039063-0.054688 0.0625-0.046875 0.078125-0.078125 0.16406-0.078125 0.25391v0.003907 13.223c0 0.20312 0.125 0.38672 0.3125 0.46484l7.0547 2.832-3.1484 5.9102c-0.003906 0.007813-0.003906 0.011719-0.007813 0.019531-0.011718 0.027344-0.015624 0.054688-0.023437 0.085938-0.011719 0.039062-0.023437 0.074218-0.023437 0.11328 0 0.007813-0.003907 0.011719-0.003907 0.019531v2.8516l-3.7539 0.68359c-0.070313 0.011719-0.13281 0.039063-0.1875 0.074219h-0.003906l-0.011719 0.011719c-0.058594 0.039062-0.10156 0.09375-0.13672 0.14844-0.011719 0.019531-0.019531 0.039062-0.027343 0.0625-0.019532 0.046874-0.03125 0.097656-0.035157 0.14844-0.003906 0.015625-0.011719 0.027344-0.011719 0.042969v13.957c0 0.20312 0.12109 0.38672 0.3125 0.46484l11.395 4.5742 22.641 9.082c0.0625 0.023437 0.12109 0.035156 0.1875 0.035156 0.0625 0 0.12891-0.011719 0.1875-0.035156l0.29688-0.11719 11.438-4.5859 11.441-4.5938 11.441-4.5898c0.1875-0.078125 0.3125-0.26172 0.3125-0.46484l0.011719-13.113v-0.35938-0.003906zm-1.8086-0.011719-10.32 4.1406-0.19141 0.074219 1.7969-7.9297zm-32.699 13.121-0.13672-0.054688-6.6094-2.6523 9.7383 0.93359 1.1523 0.10938zm-13.219-15.207 8.1875 0.79687 4.2227 1.6914c0.007812 0.035156 0.023437 0.066406 0.039062 0.10156 0.007813 0.019531 0.011719 0.039063 0.023438 0.0625 0.035156 0.0625 0.085937 0.12109 0.14844 0.16406 0.078125 0.054687 0.16406 0.074218 0.25781 0.078125 0.007812 0 0.015625 0.007812 0.023437 0.007812 0.0625 0 0.125-0.011719 0.18359-0.035156l0.32031-0.12891 2.3555-0.94531v10.59l-12.633-1.2109c-0.003907 0-0.007813-0.003906-0.011719-0.003906l-1.6641-0.15625-1.4531-0.14062zm0.90234-3.1992-10.441-4.1914v-12.191l10.441 4.1484zm33.328-16.953-1.7734 0.71094-8.2734 3.3203-9.9727-4.1719 1.9805-0.78125 8.1445-3.2188zm-0.011719 27.164-0.25 1.1016-0.44141 1.957v-7.2852l1.293-4.8906v6.4727zm-17.457 5.4688v-10.848l15.766 1.5352v10.82l-8.1406-0.78125-4.8828-0.46875h-0.003907zm15.891-10.301-14.352-1.4023 6.2266-2.5 10.242-4.1094zm-8.8125-4.7031-7.8125 3.1367h-0.003906l-2.625 1.0547v-12.387l2.1367-0.85547 8.3086-3.332zm-6.9141-10.688-3.707 1.4883c-0.0625-0.023437-0.12109-0.035156-0.1875-0.035156-0.042968 0-0.085937 0.007813-0.12891 0.015625l-10.141-4.0273 7.1523-2.8242 2.9648-1.1719 9.9805 4.1758zm-10.715-5-4.8047 1.8984-10.082-4.0078 10.43-4.1094 9.8086 4.1055zm6.6797-2.6367-9.8047-4.1055 10.137-3.9922 9.793 4.0977zm22.395 13.074-0.19531 0.73828-10.246 4.1133-0.003906-12.387 10.441-4.1914zm-33.383-7.2617 2.207 0.875 8.2891 3.293v12.277l-3.9062-1.5664-6.5898-2.6445zm-2.9023 25.812-8.9883-0.85938-6.7773-0.64453v-10.906l15.766 1.5352zm37.766-17.41v2.4102l-0.94531 4.1719v-5.8438l0.10547-0.39844 0.042968-0.019531 0.61328-0.24609zm-0.48047-0.88281v-12.387l10.441-4.1875v12.387zm9.6055-17.316-10.34 4.1484c-0.011719-0.007813-0.023438-0.011719-0.035156-0.015625l-9.8477-4.1211 10.117-3.9961zm-21.543-0.54297-9.7891-4.0977 9.7852-3.8555 10.082 3.9727zm-11.449-12.461 10.078 3.9727-9.7422 3.8398-9.7734-4.0898zm-10.703 4.2188c0.050781 0.058594 0.10938 0.10156 0.18359 0.13281l9.5195 3.9844-10.141 3.9961-9.7695-4.0898zm-11.117 4.7266 9.3516 3.9102-10.465 4.1211-10.031-3.9844 10.891-4.293c0.046875 0.10938 0.13672 0.19531 0.25391 0.24609zm-12.008 4.7852 2.3516 0.93359 8.0391 3.1953v12.188l-10.391-4.1719zm10.707 17.516 11.441 4.5938 3.6602 1.4688-5.3281-0.51953-16.02-1.5625 2.8477-5.3477zm-7.543 9.3594-1.8672-0.75 1.8672-0.33984zm-3.1641 12.691v-12.883l3.1602 1.2695v5.875c0 0.25781 0.19531 0.47656 0.45312 0.49609l6.7773 0.64844v8.7617l-10.227-4.1055zm11.391-4.4922 10.441 1v12.254l-10.441-4.1875zm11.441 1.0938 1.0469 0.10156 9.4492 3.7891v12.879l-10.496-4.2109zm11.496 4.1484 0.007812-0.003906 0.003907-0.003907 6.1211-2.457 4.3086 0.41016v10.246l-10.441 4.1875 0.003906-12.379zm11.441-1.9531 8.1289 0.77734h0.003907c0.019531 0.003906 0.035156 0.003906 0.054687 0.003906 0.035156 0 0.070313-0.011719 0.10547-0.019531 0.015625-0.003907 0.027344-0.003907 0.042969-0.007813 0.007812-0.003906 0.015625-0.003906 0.023437-0.007812 0.019531-0.007813 0.039063-0.023438 0.058594-0.03125 0.007813-0.003906 0.011719-0.007813 0.019531-0.011719 0.019532-0.011719 0.035156-0.019531 0.054688-0.03125 0.007812-0.003906 0.011718-0.011719 0.015625-0.015625 0.003906-0.003906 0.011719-0.003906 0.015625-0.007812 0.011718-0.011719 0.015625-0.023438 0.023437-0.035157 0.019531-0.019531 0.042969-0.039062 0.058594-0.066406 0.007813-0.011719 0.011719-0.027344 0.019531-0.039063 0.011719-0.019531 0.019532-0.042968 0.027344-0.0625 0.007812-0.019531 0.019531-0.03125 0.023438-0.054687l1.3047-5.7617 0.31641-1.4023 0.14453-0.058593v12.387l-10.441 4.1914 0.003906-9.7461zm21.887 0.96875-10.441 4.1875v-12.387l10.441-4.1875z"/>
<text x="0.0" y="117.5" font-size="5.0" font-weight="bold" font-family="Arbeit Regular, Helvetica, Arial-Unicode, Arial, Sans-serif" fill="#000000">Created by Cha</text><text x="0.0" y="122.5" font-size="5.0" font-weight="bold" font-family="Arbeit Regular, Helvetica, Arial-Unicode, Arial, Sans-serif" fill="#000000">from Noun Project</text></svg>