<svg xmlns="http://www.w3.org/2000/svg" version="1.1" viewBox="-5.0 -10.0 110.0 135.0">
 <path d="m84.828 29.617c0-0.019532-0.015625-0.035157-0.015625-0.054688-0.011719-0.066406-0.023438-0.12891-0.058594-0.18359-0.027344-0.046875-0.0625-0.078125-0.10547-0.11719-0.015626-0.015625-0.023438-0.035157-0.039063-0.046875-0.011719-0.007813-0.019531-0.003906-0.03125-0.011719-0.023437-0.015625-0.039063-0.042969-0.066406-0.054687l-34.328-13.527c-0.11719-0.046875-0.25-0.046875-0.36719 0l-34.328 13.531c-0.015625 0.007812-0.023437 0.023437-0.035156 0.027344-0.019531 0.011718-0.042969 0.011718-0.0625 0.023437-0.035156 0.023437-0.054687 0.0625-0.082031 0.09375-0.019532 0.023437-0.042969 0.039063-0.058594 0.0625-0.046875 0.074219-0.078125 0.16016-0.078125 0.25391v0.003907 40.824c0 0.16406 0.97656 0.55078 0.97656 0.55078l10.727 4.3047 11.441 4.5898 11.203 4.4922c0.058594 0.023438 0.12109 0.035156 0.1875 0.035156 0.0625 0 0.12891-0.011718 0.1875-0.035156l0.29297-0.11719 11.441-4.5859 11.441-4.5938 10.809-4.3359s0.94922-0.41797 0.94922-0.58594v-40.531c0-0.003906-0.003906-0.003906-0.003906-0.007812l0.003906-0.003906zm-58.266 44.473-10.359-4.1562-0.027344-0.011719-0.003906-12.406 0.58984-0.23438 9.8008 3.9336zm12.918-53.113 9.5195 3.9844-10.137 3.9922-9.7695-4.0898 10.207-4.0234c0.046875 0.058594 0.10547 0.10547 0.17969 0.13672zm32.043 4.1289-10.074 3.9805-9.793-4.0977 9.7852-3.8555zm11.469 4.5234-7.5078 3.0117-2.8438 1.1406c-0.011719-0.003906-0.019531-0.015625-0.027344-0.019531l-9.8477-4.1211 10.113-3.9961zm-10.605 17.719-8.2188 3.2969-2.2266 0.89453v-12.387l10.441-4.1914zm-22.887-3.7539v12.277l-8.8516-3.5508-1.6445-0.66016v-12.234l7.8047 3.0977zm-10.496 9.1445 8.8516 3.5508 1.6445 0.66016v12.387l-10.496-4.2109zm22.277-14.398-9.9688-4.1719 10.121-4 9.8945 4.1406zm-1.3203 0.52734-9.6406 3.8672c-0.058593-0.023437-0.12109-0.035156-0.1875-0.035156-0.042968 0-0.085937 0.007812-0.12891 0.015625l-3.8438-1.5273-6.3008-2.5039 10.117-3.9961zm-21.457-0.71875-4.3594-1.7305-5.7266-2.2734 10.43-4.1094 9.8086 4.1055zm-11.941 21.984-10.391-4.1719v-12.383l10.391 4.168zm1-13.062v-12.191l5.6602 2.25 4.7773 1.8984v12.234l-2.4492-0.98438zm22.938 9.0586v-12.387l10.441-4.1914v12.387l-2.8047 1.1211zm11.441-3.5156 10.441-4.1914v12.387l-10.441 4.1875zm21.887-9.8555-10.441 4.1914v-12.391l10.441-4.1914zm-23.715-13.145-10.125 4-9.8047-4.1055 10.137-3.9922zm-31.934-4.0469 9.3477 3.9141-10.465 4.1211-10.031-3.9805 10.895-4.2969c0.054688 0.10547 0.13672 0.19531 0.25391 0.24219zm-1.6172 8.9141v12.188l-10.391-4.168v-12.145l0.375 0.14844zm1 26.055v-12.387l0.69531 0.27734 9.7461 3.9102v12.387l-9.293-3.7305zm22.938 9.0586v-12.387l8.7344-3.5078 1.7031-0.6875v12.391l-1.7891 0.71875zm22.887-9.1836v-12.387l10.441-4.1914v12.387l-0.13672 0.058594-9.332 3.7422zm-23.387-43.785 10.078 3.9727-9.7422 3.8398-9.7734-4.0898zm-22.438 44.984 9.293 3.7305 1.1484 0.46094v12.883l-10.441-4.1875zm11.441 4.5938 10.496 4.2109v12.879l-10.496-4.2109zm11.496 4.4688 8.7344-3.5078 1.7031-0.6875v12.391l-10.438 4.1914zm11.441-4.5938 10.441-4.1875v12.387l-10.441 4.1914zm11.445-4.5898 1.1914-0.48047 9.25-3.7109v12.387l-0.13672 0.054687-10.305 4.1328z"/>
<text x="0.0" y="117.5" font-size="5.0" font-weight="bold" font-family="Arbeit Regular, Helvetica, Arial-Unicode, Arial, Sans-serif" fill="#000000">Created by Cha</text><text x="0.0" y="122.5" font-size="5.0" font-weight="bold" font-family="Arbeit Regular, Helvetica, Arial-Unicode, Arial, Sans-serif" fill="#000000">from Noun Project</text></svg>